<svg xmlns="http://www.w3.org/2000/svg" version="1.1" xmlns:xlink="http://www.w3.org/1999/xlink" xmlns:svgjs="http://svgjs.dev/svgjs" width="1000" height="1000" viewBox="0 0 1000 1000"><rect width="1000" height="1000" fill="#046380"></rect><g transform="matrix(0.7,0,0,0.7,149.57575757575756,282.1265587044535)"><svg viewBox="0 0 396 247" data-background-color="#046380" preserveAspectRatio="xMidYMid meet" height="623" width="1000" xmlns="http://www.w3.org/2000/svg" xmlns:xlink="http://www.w3.org/1999/xlink"><g id="tight-bounds" transform="matrix(1,0,0,1,0.2400000000000091,-0.09999999999999432)"><svg viewBox="0 0 395.52 247.2" height="247.2" width="395.52"><g><svg></svg></g><g><svg viewBox="0 0 395.52 247.2" height="247.2" width="395.52"><g transform="matrix(1,0,0,1,143.51385079125848,65.92)"><svg viewBox="0 0 108.49229841748303 115.35999999999999" height="115.35999999999999" width="108.49229841748303"><g><svg viewBox="0 0 108.49229841748303 115.35999999999999" height="115.35999999999999" width="108.49229841748303"><g><svg viewBox="0 0 108.49229841748303 115.35999999999999" height="115.35999999999999" width="108.49229841748303"><g><svg viewBox="0 0 108.49229841748303 115.35999999999999" height="115.35999999999999" width="108.49229841748303"><g id="textblocktransform"><svg viewBox="0 0 108.49229841748303 115.35999999999999" height="115.35999999999999" width="108.49229841748303" id="textblock"><g><svg viewBox="0 0 108.49229841748303 115.35999999999999" height="115.35999999999999" width="108.49229841748303"><g transform="matrix(1,0,0,1,0,0)"><svg width="108.49229841748303" viewBox="2.369999885559082 -32.400001525878906 30.470001220703125 32.400001525878906" height="115.35999999999999" data-palette-color="#ffffff"><path d="M13.16-32.4L13.16 0 8.86 0 2.37-6.47 2.37-25.93 8.86-32.4 13.16-32.4ZM22.05-25.93L14.87-25.93 14.87-32.4 26.37-32.4 32.84-25.93 32.84-19.41 22.05-19.41 22.05-25.93ZM26.37 0L14.87 0 14.87-6.47 22.05-6.47 22.05-11.21 32.84-11.21 32.84-6.47 26.37 0Z" opacity="1" transform="matrix(1,0,0,1,0,0)" fill="#ffffff" class="undefined-text-0" data-fill-palette-color="primary" id="text-0"></path></svg></g></svg></g></svg></g></svg></g></svg></g></svg></g></svg></g><g mask="url(#d1e149f8-e0e1-4b6a-bb7d-6b6d57d9a4b1)"><g transform="matrix(3.1844155844155844, 0, 0, 3.1844155844155844, 58.60104867910408, 1)"><svg xmlns="http://www.w3.org/2000/svg" xmlns:xlink="http://www.w3.org/1999/xlink" version="1.1" x="0" y="0" viewBox="6.300000190734863 11.5 87.39999389648438 77" style="enable-background:new 0 0 100 100;" xml:space="preserve" height="77" width="87.39999389648438" class="icon-none" data-fill-palette-color="accent" id="none"><path d="M72.3 12.3L72.3 12.3 72.3 12.3l-0.4-0.8H28.2L6.3 50l21.8 38.5h43.7L93.7 50 72.3 12.3zM33.3 25.3L9.9 47.7l18.6-32.8L33.3 25.3zM70.7 14.8l6.4 35.7L36.9 25.8 70.7 14.8zM35.5 27.3l41 25.2-41 23.3V27.3zM77 54.5l-7.2 30.8-32.6-8.1L77 54.5zM33.5 75L9.9 50.5l23.6-22.7V75zM33.2 77.6l-4.6 7.7L11.5 55.1 33.2 77.6zM35 78.6l31.4 7.9H30.2L35 78.6zM79.3 53.3l11.6-2.5L72.1 84 79.3 53.3zM90.7 48.9l-11.4 2.5-5.9-33.1L90.7 48.9zM35 24.3l-5-10.8h38.2L35 24.3z" fill="#ffffff" data-fill-palette-color="accent"></path></svg></g></g></svg></g><defs><mask id="f6175438-40fc-4cc4-a367-98b2715dad06"><rect width="640" height="400" fill="white"></rect><rect width="130.76263711911358" height="254.74118208" fill="black" y="-3.7705910399999993" x="132.3786814404432" id="transform-me"></rect></mask><mask id="66ab92ad-43fb-4353-a4cf-75d3ab24d3f3"><rect width="640" height="400" fill="white"></rect><rect width="130.76263711911358" height="254.74118208" fill="black" y="-3.7705910399999993" x="132.3786814404432" id="transform-me"></rect></mask><mask id="46dbc5b9-ac86-48f4-ac53-9d2c2fe26874"><rect width="640" height="400" fill="white"></rect><rect width="130.76263711911358" height="254.74118208" fill="black" y="-3.7705910399999993" x="132.3786814404432" id="transform-me"></rect></mask><mask id="e58b9723-323a-448c-a16a-4c352f46ba0a"><rect width="640" height="400" fill="white"></rect><rect width="130.76263711911358" height="254.74118208" fill="black" y="-3.7705910399999993" x="132.3786814404432" id="transform-me"></rect></mask><mask id="19ddbef2-4392-4cc1-abd9-fef559a917d1"><rect width="640" height="400" fill="white"></rect><rect width="130.76263711911358" height="254.74118208" fill="black" y="-3.7705910399999993" x="132.3786814404432" id="transform-me"></rect></mask><mask id="c5d2dac7-f5ef-4b04-a09e-bd92b24338aa"><rect width="640" height="400" fill="white"></rect><rect width="130.76263711911358" height="254.74118208" fill="black" y="-3.7705910399999993" x="132.3786814404432" id="transform-me"></rect></mask><mask id="6a58ee79-4873-49f2-9592-d3b937e5ca53"><rect width="640" height="400" fill="white"></rect><rect width="138.6716675900277" height="254.74118208" fill="black" y="-3.7705910399999993" x="128.42416620498614" id="transform-me"></rect></mask><mask id="80758440-e889-49ab-ac90-8b2ab4276622"><rect width="640" height="400" fill="white"></rect><rect width="149.7443102493075" height="254.74118208" fill="black" y="-3.7705910399999993" x="122.88784487534625" id="transform-me"></rect></mask><mask id="d93f6ca6-e2e3-4fdb-a4c0-0c13a0b25a25"><rect width="640" height="400" fill="white"></rect><rect width="214.90451612903223" height="254.74118208" fill="black" y="-3.7705910399999993" x="90.30774193548388" id="transform-me"></rect></mask><mask id="11b71741-740e-4bf7-8ea5-34f357bb0c40"><rect width="640" height="400" fill="white"></rect><rect width="221.3678098471986" height="254.74118208" fill="black" y="-3.7705910399999993" x="87.07609507640069" id="transform-me"></rect></mask><mask id="e1418901-9085-4e65-8042-d14e924ae5b8"><rect width="640" height="400" fill="white"></rect><rect width="140.59333230531996" height="254.74118208" fill="black" y="-3.7705910399999993" x="127.46333384734001" id="transform-me"></rect></mask><mask id="ab02360b-2bb4-4958-9447-238db9e3ab38"><rect width="640" height="400" fill="white"></rect><rect width="154.86611600928077" height="254.74118208" fill="black" y="-3.7705910399999993" x="120.3269419953596" id="transform-me"></rect></mask><mask id="341c9cc6-9abb-42e0-a9e4-55d9c41f35a3"><rect width="640" height="400" fill="white"></rect><rect width="151.33356890459362" height="254.74118208" fill="black" y="-3.7705910399999993" x="122.09321554770318" id="transform-me"></rect></mask><mask id="dffdad5b-309b-4b16-9891-8ff70a332e0a"><rect width="640" height="400" fill="white"></rect><rect width="172.95553138075317" height="254.74118208" fill="black" y="-3.7705910399999993" x="111.2822343096234" id="transform-me"></rect></mask><mask id="90547eeb-254a-413c-8484-7a1c3fc41d52"><rect width="640" height="400" fill="white"></rect><rect width="173.84752" height="254.74118208" fill="black" y="-3.7705910399999993" x="110.83623999999999" id="transform-me"></rect></mask><mask id="9b0ce3ce-1890-4598-9d36-4f6f1cee79e9"><rect width="640" height="400" fill="white"></rect><rect width="195.6608715083799" height="254.74118208" fill="black" y="-3.7705910399999993" x="99.92956424581004" id="transform-me"></rect></mask><mask id="7294f3b3-d7dd-4675-a57a-4713d885478d"><rect width="640" height="400" fill="white"></rect><rect width="178.11771196754563" height="254.74118208" fill="black" y="-3.7705910399999993" x="108.70114401622718" id="transform-me"></rect></mask><mask id="58b59124-d598-412c-9220-73b233b8d832"><rect width="640" height="400" fill="white"></rect><rect width="181.07776064908722" height="254.74118208" fill="black" y="-3.7705910399999993" x="107.22111967545638" id="transform-me"></rect></mask><mask id="0361ead6-dc47-4dc2-8849-230a3af2b67e"><rect width="640" height="400" fill="white"></rect><rect width="179.01229238884704" height="254.74118208" fill="black" y="-3.7705910399999993" x="108.25385380557647" id="transform-me"></rect></mask><mask id="8a6ef412-d691-42d2-907b-79835e00f980"><rect width="640" height="400" fill="white"></rect><rect width="119.34152825923134" height="169.82745472" fill="black" y="38.68627264" x="138.08923587038433" id="transform-me"></rect></mask><mask id="4204478b-42b7-4175-9b9b-4f7e7fff8f40"><rect width="640" height="400" fill="white"></rect><rect width="238.68305651846268" height="339.65490944" fill="black" y="-46.22745472" x="78.41847174076865" id="transform-me"></rect></mask><mask id="06546489-848d-4b73-91f7-30c3a8885e02"><rect width="640" height="400" fill="white"></rect><rect width="119.34152825923134" height="169.82745472" fill="black" y="38.68627264" x="138.08923587038433" id="transform-me"></rect></mask><mask id="5ba35ffd-9538-42b9-8b50-272b6c9e7a69"><rect width="640" height="400" fill="white"></rect><rect width="179.01229238884704" height="254.74118208" fill="black" y="-3.7705910399999993" x="108.25385380557647" id="transform-me"></rect></mask><mask id="d1e149f8-e0e1-4b6a-bb7d-6b6d57d9a4b1"><rect width="640" height="400" fill="white"></rect><rect width="119.34152825923134" height="169.82745472" fill="black" y="38.68627264" x="138.08923587038433" id="transform-me"></rect></mask></defs></svg><rect width="395.52" height="247.2" fill="none" stroke="none" visibility="hidden"></rect></g></svg></g></svg>