<svg xmlns="http://www.w3.org/2000/svg" xmlns:svgjs="http://svgjs.dev/svgjs" xmlns:xlink="http://www.w3.org/1999/xlink" width="1000" height="1000" version="1.1" viewBox="0 0 1000 1000"><rect width="1000" height="1000" fill="#046380"/><g transform="matrix(0.7,0,0,0.7,149.57575757575756,282.1265587044535)"><svg xmlns="http://www.w3.org/2000/svg" xmlns:xlink="http://www.w3.org/1999/xlink" width="1000" height="623" data-background-color="#046380" preserveAspectRatio="xMidYMid meet" viewBox="0 0 396 247"><g id="tight-bounds" transform="matrix(1,0,0,1,0.2400000000000091,-0.09999999999999432)"><svg width="395.52" height="247.2" viewBox="0 0 395.52 247.2"><g><svg/></g><g><svg width="395.52" height="247.2" viewBox="0 0 395.52 247.2"><g transform="matrix(1,0,0,1,143.51385079125848,65.92)"><svg width="108.492" height="115.36" viewBox="0 0 108.492 115.36"><g><svg width="108.492" height="115.36" viewBox="0 0 108.492 115.36"><g><svg width="108.492" height="115.36" viewBox="0 0 108.492 115.36"><g><svg width="108.492" height="115.36" viewBox="0 0 108.492 115.36"><g id="textblocktransform"><svg id="textblock" width="108.492" height="115.36" viewBox="0 0 108.492 115.36"><g><svg width="108.492" height="115.36" viewBox="0 0 108.492 115.36"><g transform="matrix(1,0,0,1,0,0)"><svg width="108.492" height="115.36" data-palette-color="#ffffff" viewBox="2.37 -32.4 30.47 32.4"><path id="text-0" fill="#fff" d="M13.16-32.4L13.16 0 8.86 0 2.37-6.47 2.37-25.93 8.86-32.4 13.16-32.4ZM22.05-25.93L14.87-25.93 14.87-32.4 26.37-32.4 32.84-25.93 32.84-19.41 22.05-19.41 22.05-25.93ZM26.37 0L14.87 0 14.87-6.47 22.05-6.47 22.05-11.21 32.84-11.21 32.84-6.47 26.37 0Z" class="undefined-text-0" data-fill-palette-color="primary" opacity="1" transform="matrix(1,0,0,1,0,0)"/></svg></g></svg></g></svg></g></svg></g></svg></g></svg></g></svg></g><g mask="url(#d1e149f8-e0e1-4b6a-bb7d-6b6d57d9a4b1)"><g transform="matrix(3.1844155844155844, 0, 0, 3.1844155844155844, 58.60104867910408, 1)"><svg xmlns="http://www.w3.org/2000/svg" xmlns:xlink="http://www.w3.org/1999/xlink" id="none" width="87.4" height="77" x="0" y="0" version="1.1" viewBox="6.3 11.5 87.4 77" style="enable-background:new 0 0 100 100" class="icon-none" data-fill-palette-color="accent" xml:space="preserve"><path fill="#fff" d="M72.3 12.3L72.3 12.3 72.3 12.3l-0.4-0.8H28.2L6.3 50l21.8 38.5h43.7L93.7 50 72.3 12.3zM33.3 25.3L9.9 47.7l18.6-32.8L33.3 25.3zM70.7 14.8l6.4 35.7L36.9 25.8 70.7 14.8zM35.5 27.3l41 25.2-41 23.3V27.3zM77 54.5l-7.2 30.8-32.6-8.1L77 54.5zM33.5 75L9.9 50.5l23.6-22.7V75zM33.2 77.6l-4.6 7.7L11.5 55.1 33.2 77.6zM35 78.6l31.4 7.9H30.2L35 78.6zM79.3 53.3l11.6-2.5L72.1 84 79.3 53.3zM90.7 48.9l-11.4 2.5-5.9-33.1L90.7 48.9zM35 24.3l-5-10.8h38.2L35 24.3z" data-fill-palette-color="accent"/></svg></g></g></svg></g><defs><mask id="f6175438-40fc-4cc4-a367-98b2715dad06"><rect width="640" height="400" fill="#fff"/><rect id="transform-me" width="130.763" height="254.741" x="132.379" y="-3.771" fill="#000"/></mask><mask id="66ab92ad-43fb-4353-a4cf-75d3ab24d3f3"><rect width="640" height="400" fill="#fff"/><rect id="transform-me" width="130.763" height="254.741" x="132.379" y="-3.771" fill="#000"/></mask><mask id="46dbc5b9-ac86-48f4-ac53-9d2c2fe26874"><rect width="640" height="400" fill="#fff"/><rect id="transform-me" width="130.763" height="254.741" x="132.379" y="-3.771" fill="#000"/></mask><mask id="e58b9723-323a-448c-a16a-4c352f46ba0a"><rect width="640" height="400" fill="#fff"/><rect id="transform-me" width="130.763" height="254.741" x="132.379" y="-3.771" fill="#000"/></mask><mask id="19ddbef2-4392-4cc1-abd9-fef559a917d1"><rect width="640" height="400" fill="#fff"/><rect id="transform-me" width="130.763" height="254.741" x="132.379" y="-3.771" fill="#000"/></mask><mask id="c5d2dac7-f5ef-4b04-a09e-bd92b24338aa"><rect width="640" height="400" fill="#fff"/><rect id="transform-me" width="130.763" height="254.741" x="132.379" y="-3.771" fill="#000"/></mask><mask id="6a58ee79-4873-49f2-9592-d3b937e5ca53"><rect width="640" height="400" fill="#fff"/><rect id="transform-me" width="138.672" height="254.741" x="128.424" y="-3.771" fill="#000"/></mask><mask id="80758440-e889-49ab-ac90-8b2ab4276622"><rect width="640" height="400" fill="#fff"/><rect id="transform-me" width="149.744" height="254.741" x="122.888" y="-3.771" fill="#000"/></mask><mask id="d93f6ca6-e2e3-4fdb-a4c0-0c13a0b25a25"><rect width="640" height="400" fill="#fff"/><rect id="transform-me" width="214.905" height="254.741" x="90.308" y="-3.771" fill="#000"/></mask><mask id="11b71741-740e-4bf7-8ea5-34f357bb0c40"><rect width="640" height="400" fill="#fff"/><rect id="transform-me" width="221.368" height="254.741" x="87.076" y="-3.771" fill="#000"/></mask><mask id="e1418901-9085-4e65-8042-d14e924ae5b8"><rect width="640" height="400" fill="#fff"/><rect id="transform-me" width="140.593" height="254.741" x="127.463" y="-3.771" fill="#000"/></mask><mask id="ab02360b-2bb4-4958-9447-238db9e3ab38"><rect width="640" height="400" fill="#fff"/><rect id="transform-me" width="154.866" height="254.741" x="120.327" y="-3.771" fill="#000"/></mask><mask id="341c9cc6-9abb-42e0-a9e4-55d9c41f35a3"><rect width="640" height="400" fill="#fff"/><rect id="transform-me" width="151.334" height="254.741" x="122.093" y="-3.771" fill="#000"/></mask><mask id="dffdad5b-309b-4b16-9891-8ff70a332e0a"><rect width="640" height="400" fill="#fff"/><rect id="transform-me" width="172.956" height="254.741" x="111.282" y="-3.771" fill="#000"/></mask><mask id="90547eeb-254a-413c-8484-7a1c3fc41d52"><rect width="640" height="400" fill="#fff"/><rect id="transform-me" width="173.848" height="254.741" x="110.836" y="-3.771" fill="#000"/></mask><mask id="9b0ce3ce-1890-4598-9d36-4f6f1cee79e9"><rect width="640" height="400" fill="#fff"/><rect id="transform-me" width="195.661" height="254.741" x="99.93" y="-3.771" fill="#000"/></mask><mask id="7294f3b3-d7dd-4675-a57a-4713d885478d"><rect width="640" height="400" fill="#fff"/><rect id="transform-me" width="178.118" height="254.741" x="108.701" y="-3.771" fill="#000"/></mask><mask id="58b59124-d598-412c-9220-73b233b8d832"><rect width="640" height="400" fill="#fff"/><rect id="transform-me" width="181.078" height="254.741" x="107.221" y="-3.771" fill="#000"/></mask><mask id="0361ead6-dc47-4dc2-8849-230a3af2b67e"><rect width="640" height="400" fill="#fff"/><rect id="transform-me" width="179.012" height="254.741" x="108.254" y="-3.771" fill="#000"/></mask><mask id="8a6ef412-d691-42d2-907b-79835e00f980"><rect width="640" height="400" fill="#fff"/><rect id="transform-me" width="119.342" height="169.827" x="138.089" y="38.686" fill="#000"/></mask><mask id="4204478b-42b7-4175-9b9b-4f7e7fff8f40"><rect width="640" height="400" fill="#fff"/><rect id="transform-me" width="238.683" height="339.655" x="78.418" y="-46.227" fill="#000"/></mask><mask id="06546489-848d-4b73-91f7-30c3a8885e02"><rect width="640" height="400" fill="#fff"/><rect id="transform-me" width="119.342" height="169.827" x="138.089" y="38.686" fill="#000"/></mask><mask id="5ba35ffd-9538-42b9-8b50-272b6c9e7a69"><rect width="640" height="400" fill="#fff"/><rect id="transform-me" width="179.012" height="254.741" x="108.254" y="-3.771" fill="#000"/></mask><mask id="d1e149f8-e0e1-4b6a-bb7d-6b6d57d9a4b1"><rect width="640" height="400" fill="#fff"/><rect id="transform-me" width="119.342" height="169.827" x="138.089" y="38.686" fill="#000"/></mask></defs></svg><rect width="395.52" height="247.2" fill="none" stroke="none" visibility="hidden"/></g></svg></g></svg>